<svg id="Layer_1" data-name="Layer 1" xmlns="http://www.w3.org/2000/svg" viewBox="0 0 6.442 6.878"><title>tf0.15200805664063</title><path d="M43.955,53.385l1.132-.654,1.074.621a1.7,1.7,0,0,0,1.74,0l1.074-.621,1.133.654L48.315,54.42a2.508,2.508,0,0,1-2.567,0Z" transform="translate(-43.81 -52.087)" fill="#0691ca" fill-rule="evenodd"></path><path d="M47.177,58.965l1.131-.654v-1.24a1.7,1.7,0,0,1,.87-1.507l1.074-.62V53.637l-1.791,1.034A2.51,2.51,0,0,0,47.177,56.9Z" transform="translate(-43.81 -52.087)" fill="#004883" fill-rule="evenodd"></path><path d="M43.81,53.637v1.307l1.074.621a1.7,1.7,0,0,1,.87,1.506v1.24l1.131.654V56.894A2.506,2.506,0,0,0,45.6,54.671Z" transform="translate(-43.81 -52.087)" fill="#004883" fill-rule="evenodd"></path><path d="M45.537,52.5l-.062.036L46.3,53a1.505,1.505,0,0,0,.359.152,1.4,1.4,0,0,0,.742,0A1.512,1.512,0,0,0,47.759,53l.822-.472-.01-.006a2.926,2.926,0,0,0-3.034-.02Z" transform="translate(-43.81 -52.087)" fill="#004883" fill-rule="evenodd"></path><path d="M50.227,55.449v-.072l-.813.485a1.577,1.577,0,0,0-.311.235,1.409,1.409,0,0,0-.229.3,1.432,1.432,0,0,0-.142.346,1.5,1.5,0,0,0-.048.384l0,.949.01-.006a2.927,2.927,0,0,0,1.535-2.618Z" transform="translate(-43.81 -52.087)" fill="#0691ca" fill-rule="evenodd"></path><path d="M43.835,55.449v-.072l.813.485a1.548,1.548,0,0,1,.311.235,1.409,1.409,0,0,1,.229.3,1.432,1.432,0,0,1,.142.346,1.548,1.548,0,0,1,.048.384l0,.949-.011-.006a2.929,2.929,0,0,1-1.534-2.618Z" transform="translate(-43.81 -52.087)" fill="#0691ca" fill-rule="evenodd"></path></svg>