<svg xmlns="http://www.w3.org/2000/svg" version="1.1" xmlns:xlink="http://www.w3.org/1999/xlink" xmlns:svgjs="http://svgjs.dev/svgjs" viewBox="0 0 11.04186962653669 11.109832266478252"><g transform="matrix(0.8571428571428571,0,0,0.8571428571428571,3.620634552542385,3.5544106433714058)"><rect width="12.950143870901034" height="12.950143870901034" x="-4.258054964603564" y="-4.141148863938176" fill="#000000"></rect><g><path d=" M -0.21093520435015986 -1.421346445974033 L -0.14937876194288863 -1.3242083772359718 L 0.040673981240274576 -1.4446448949893287 L 0.1204297196636086 -1.3187877450591452 L -0.06962302351955457 -1.1983512273057884 L -0.0016433001654376223 -1.0910770122646252 L 0.2137498087754806 -1.2275717323850963 L 0.2977877344967118 -1.0949571515861778 L -0.08316243072820637 -0.8535488426672272 L -0.460530186355391 -1.449047437974472 L -0.0795800211304728 -1.6904557468934227 L 0.004457904590758399 -1.5578411660945042 L -0.21093520435015986 -1.421346445974033 M 0.7740185605479493 -2.075207581621533 L 0.8192676934208314 -1.3308780067863983 L 0.5873687742956151 -1.2348369150154466 L 0.09218030431524155 -1.7928238137850294 L 0.28619932031641854 -1.8731769184539533 L 0.6287839528719925 -1.4641331927512327 L 0.5809234446229683 -1.995237110784366 L 0.7740185605479493 -2.075207581621533 M 1.2090456932494162 -2.0175873508928284 L 1.2341936535703164 -1.905370685055269 L 1.4537479997742366 -1.9545732161178997 L 1.4863310092334898 -1.8091794490761925 L 1.2667766630295696 -1.7599769180135618 L 1.2945487583404767 -1.6360506870451268 L 1.5433770173715864 -1.691813555582775 L 1.5777094501575109 -1.5386134117871506 L 1.1376249606554307 -1.4399896717460552 L 0.9834570299925212 -2.1279266231850054 L 1.4235415194946013 -2.226550363226101 L 1.4578739522805257 -2.073350219430476 L 1.2090456932494162 -2.0175873508928284 M 2.358011248409694 -1.5940074396186892 L 2.16221850831684 -1.5849961729523405 L 1.8833800173434914 -1.9665798413026851 L 1.9014945023768657 -1.5729964760139885 L 1.7057017622840116 -1.5639852093476398 L 1.6732887877953595 -2.268239708151018 L 1.8690815278882136 -2.277250974817367 L 2.148149898113255 -1.8906725937095517 L 2.129805533828188 -2.289250671755719 L 2.325598273921042 -2.2982619384220677 L 2.358011248409694 -1.5940074396186892 M 3.1243419631532006 -2.2069687796368016 L 3.1032570844542784 -2.0524002579700285 L 2.9169821993686798 -2.0778102399918064 L 2.842779645485934 -1.5338479425875855 L 2.6485781695456296 -1.5603392004400776 L 2.722780723428375 -2.1043014978442987 L 2.5384874860564532 -2.129441160908398 L 2.5595723647553754 -2.2840096825751712 L 3.1243419631532006 -2.2069687796368016 M 3.5003365650073275 -2.1076316094380925 L 3.319616660496968 -1.4261880562997808 L 3.1301656868585157 -1.4764307531565615 L 3.3108855913688746 -2.1578743062948726 L 3.5003365650073275 -2.1076316094380925 M 4.1631581582968895 -1.8673389263296918 L 4.105665370539591 -1.7223196884476293 L 3.843515209752786 -1.8262489586242845 L 3.7978158143559586 -1.71097725671803 L 3.991174798198709 -1.634320206374965 L 3.9362618150202633 -1.4958082419876104 L 3.7429028311775134 -1.5724652923306754 L 3.6411848220684466 -1.3158927945393342 L 3.4589811642166244 -1.3881273227472222 L 3.718804339658263 -2.043502724714235 L 4.1631581582968895 -1.8673389263296918 M 4.922588705156842 -1.4334909077103846 L 4.461032523539 -1.150947298314672 L 4.344821823581401 -0.9594503708840605 L 4.176407115082158 -1.0616535311146276 L 4.2926178150397565 -1.253150458545239 L 4.330145085918389 -1.7930177607042066 L 4.521642013349 -1.6768070607466075 L 4.486536248228147 -1.379944154247194 L 4.733656468718605 -1.5481452143649799 L 4.922588705156842 -1.4334909077103846" fill="#fffcfa" fill-rule="nonzero"></path></g><g><path d=" M -1.662017657513431 1.47985420386554 L -2.205868232871849 1.1051155869321359 L -2.183071422332715 1.037970932619253 L -1.6185784399562304 1.0606560598276698 L -2.079024440897693 0.7315158437040439 L -2.0576729928635737 0.6658005803922716 L -1.3983930023044706 0.7033865347601503 L -1.4203130124382533 0.7679487023686916 L -1.9947638173108004 0.7265217771067956 L -1.5193914582429513 1.0597696999592983 L -1.5421882687820854 1.1269143542721811 L -2.120730808879605 1.097539033630546 L -1.640097647379648 1.4152920362569987 L -1.662017657513431 1.47985420386554 M -1.7364428532842298 2.0704159532739745 L -2.366237824744216 1.9857946009888803 L -2.3577635834567245 1.9227250044192106 L -2.0631384680526965 1.9623118172907783 L -2.0172565045104207 1.6208350015778532 L -2.3118816199144487 1.5812481887062853 L -2.3034073786269573 1.5181785921366158 L -1.673612407166971 1.6027999444217103 L -1.6820866484544625 1.6658695409913797 L -1.964998838781266 1.627856515787489 L -2.010880802323542 1.9693333315004145 L -1.7279686119967383 2.0073463567043053 L -1.7364428532842298 2.0704159532739745 M -1.7926751009502047 2.3033256009470513 L -2.0299400187941 2.30525066405451 L -2.027985452803768 2.546151825850036 L -2.0807109901024115 2.5465796176516937 L -2.0826655560927434 2.305678455856168 L -2.323566717888269 2.3076330218464998 L -2.32139088027639 2.5758060132792546 L -2.3741164175750336 2.5762338050809124 L -2.3768085556371887 2.244426544494622 L -1.7404658641018376 2.239263539991859 L -1.7377737260396826 2.571070800578149 L -1.7904992633383259 2.5714985923798066 L -1.7926751009502047 2.3033256009470513 M -2.3113214375827136 3.142477647722202 L -2.0702540757398555 2.9498968763549507 L -2.0865244409670356 2.8337583049096393 L -2.349411749975027 2.8705873486796905 L -2.358240630330861 2.807566418438049 L -1.728931626917896 2.7194037417419334 L -1.7024449858503936 2.9084665324668584 Q -1.6876881429699278 3.013801515870745 -1.7304742119985557 3.07533270986426 Q -1.7732602810271838 3.136863903857775 -1.8551874903413181 3.1483414483203593 Q -1.923610214603672 3.157927089849551 -1.977262729795195 3.1255118703284896 Q -2.0309152449867183 3.0930966508074285 -2.0560408123311777 3.0185892653096253 L -2.3007267811557126 3.2181027640121718 L -2.3113214375827136 3.142477647722202 M -2.0352073977702703 2.826569073762746 L -2.017423510196376 2.9535112332494813 Q -2.007081107493827 3.027335751532547 -1.9658348825733587 3.059653085686758 Q -1.9245886576528903 3.091970419840969 -1.8642686244216047 3.0835199200718133 Q -1.802147993183415 3.0748171665782054 -1.7734318550430124 3.034075449106642 Q -1.7447157169026095 2.9933337316350785 -1.7555626270540627 2.915908017338204 L -1.7732203877657313 2.789866156854921 L -2.0352073977702703 2.826569073762746 M -1.6713004107468288 3.343547242648391 L -1.8999602628441252 3.4068956376263264 L -1.8356410112381756 3.6390598552730067 L -1.8864543117042416 3.6531372763792147 L -1.9507735633101912 3.4209730587325344 L -2.1829377809568715 3.485292310338484 L -2.1113371046408145 3.7437392696055434 L -2.16215040510688 3.7578166907117514 L -2.2507410724131884 3.4380433343304744 L -1.6374771012710139 3.268143424427966 L -1.5488864339647055 3.5879167808092425 L -1.5996997344307715 3.6019942019154505 L -1.6713004107468288 3.343547242648391 M -1.416145458654025 4.059718156652446 L -1.6287214352827437 4.165121198675836 L -1.5217030209678075 4.380955044678174 L -1.5689421268853008 4.404377942905595 L -1.6759605412002367 4.1885440969032555 L -1.8917943872025755 4.295562511218192 L -1.772660680701043 4.535830377522682 L -1.819899786618536 4.559253275750102 L -1.9673025082221272 4.261972695407258 L -1.3971753678385905 3.979282544386672 L -1.2497726462349994 4.276563124729516 L -1.2970117521524924 4.299986022956936 L -1.416145458654025 4.059718156652446 M -0.8941748983827063 4.822912128750087 L -1.5547164206185782 4.982676226168139 L -1.5957622713825332 4.922638785071684 L -1.2071495104578633 4.365126640389621 L -1.168155952232106 4.422162209431253 L -1.518203776958924 4.913663947394154 L -0.9321423103393647 4.767377495735866 L -0.8941748983827063 4.822912128750087 M -0.8092382428419279 4.992859625611349 L -0.9846080567934442 5.152683827352038 L -0.8223344419992575 5.330741301287486 L -0.8613055117662611 5.3662577905631945 L -1.0235791265604477 5.188200316627747 L -1.2016366004958954 5.350473931421933 L -1.02099238780048 5.548688855236866 L -1.0599634575674837 5.584205344512575 L -1.2834723986990992 5.3389563709788455 L -0.8131319015111246 4.910309086616842 L -0.5896229603795091 5.155558060150573 L -0.6285940301465127 5.191074549426281 L -0.8092382428419279 4.992859625611349 M -0.6352023245659479 5.963880572480715 L -0.5842774108048996 5.659565801881733 L -0.6739220721863821 5.583956759778405 L -0.845068120978411 5.786873357634164 L -0.8937125108753395 5.745845195252514 L -0.4840170036642841 5.260096216138899 L -0.3380838339734985 5.383180703283851 Q -0.2567782108600609 5.451756346121753 -0.24755808949732183 5.526131912669151 Q -0.23833796813458274 5.6005074792165495 -0.2916745792307287 5.663745186082556 Q -0.3362194412450924 5.7165590951135075 -0.3978056933584454 5.728241235054705 Q -0.4593919454717983 5.739923374995904 -0.5278379988910175 5.701222181223197 L -0.5768290566896337 6.013114367338695 L -0.6352023245659479 5.963880572480715 M -0.6405134256756093 5.544346328005192 L -0.542529726026082 5.626988769373946 Q -0.4855462978611085 5.675050331021022 -0.4332624596327004 5.67157737592047 Q -0.3809786214042924 5.668104420819918 -0.3417088088389981 5.6215447904900016 Q -0.3012667630627994 5.573595320448743 -0.30708418458515996 5.524091161643017 Q -0.3129016061075205 5.47458700283729 -0.3726647136951755 5.424180974768405 L -0.4699534934890326 5.342124650005103 L -0.6405134256756093 5.544346328005192 M 0.30458443679138547 5.833416225371623 L -0.07470865188480719 6.053165276437737 L -0.20659289655847687 6.2623311141353595 L -0.2604223400836003 6.228390315873753 L -0.12853809540993066 6.01922447817613 L -0.09529142939524593 5.581284581142548 L -0.03454105741689234 5.6195891963235045 L -0.070591786665329 5.986979386083964 L 0.2446030568633908 5.795596478737262 L 0.30458443679138547 5.833416225371623 M 0.6956027597434894 6.070922302530711 L 0.610801144708961 6.292523370206329 L 0.8357983973297988 6.3786246268505815 L 0.8169535939887924 6.427869308556274 L 0.5919563413679546 6.341768051912021 L 0.5058550847237016 6.566765304532859 L 0.7563237244336908 6.662613873250046 L 0.7374789210926844 6.7118585549557395 L 0.42757704484134185 6.593266258068372 L 0.6550143265431423 5.998933892654838 L 0.9649162027944849 6.117526189542206 L 0.9460713994534786 6.166770871247898 L 0.6956027597434894 6.070922302530711 M 1.5967211174866467 6.278055134728806 L 1.2194809023057138 6.843324530213588 L 1.1486048923180885 6.827019702505785 L 1.0562915413310026 6.153730823456812 L 1.1236237508192468 6.169220409779225 L 1.1995324836343135 6.767839906871442 L 1.5311608082480932 6.262973169099088 L 1.5967211174866467 6.278055134728806 M 1.774376674797168 6.345396727378148 L 1.7538208801910071 6.5817773662121 L 1.9938242108078552 6.602648192153222 L 1.9892562564509304 6.655177223005211 L 1.7492529258340825 6.63430639706409 L 1.728382099892961 6.874309727680937 L 1.9955556188815278 6.897543288634261 L 1.990987664524603 6.95007231948625 L 1.6604170393353594 6.921325710171121 L 1.715547522953416 6.287354648164353 L 2.0461181481426594 6.316101257479482 L 2.041550193785735 6.368630288331472 L 1.774376674797168 6.345396727378148 M 2.708574806861824 6.931589496407112 L 2.6450372604565606 6.935134489165713 L 2.263987457586645 6.421017845041194 L 2.293765396758891 6.954733234845405 L 2.230227850353628 6.958278227604006 L 2.1948285655213153 6.323810442785735 L 2.2583661119265788 6.320265450027135 L 2.6393652720427996 6.8334744149172915 L 2.609637975624248 6.300666704347442 L 2.6731755220295113 6.297121711588841 L 2.708574806861824 6.931589496407112 M 3.2034394945745723 6.196292405315784 L 3.2139238586720276 6.247966803219661 L 3.041081907062509 6.2830351934766675 L 3.1569522068292146 6.854126384103996 L 3.0945865541866047 6.866779926980235 L 2.978716254419899 6.295688736352907 L 2.8049833649154854 6.330937891508145 L 2.79449900081803 6.279263493604268 L 3.2034394945745723 6.196292405315784 M 3.655343823895003 6.213612710393296 Q 3.662228462331373 6.129258586116376 3.7099043849094357 6.062430029397654 Q 3.757580307487499 5.995601472678932 3.8371589865826836 5.959771837471671 Q 3.9341455017299403 5.916104469562821 4.024076381505471 5.930946575291743 Q 4.114007261281001 5.945788681020664 4.183202917130485 6.015329519049182 L 4.1152294620700145 6.045933999122051 Q 4.063862123814066 5.99827569537684 3.997953017849021 5.988071272475165 Q 3.9320439118839756 5.9778668495734895 3.8599257339539643 6.01033745648007 Q 3.7960970017630347 6.039075809719227 3.758553023670405 6.091871174434573 Q 3.721009045577775 6.144666539149919 3.7171886977460944 6.213683185724702 Q 3.713368349914414 6.2826998322994845 3.746585407554479 6.356475899377312 Q 3.7798024651945443 6.43025196645514 3.8338216248530648 6.472728365071007 Q 3.887840784511585 6.515204763686874 3.952256989009661 6.522093408292917 Q 4.016673193507737 6.528982052898959 4.080501925698666 6.500243699659801 Q 4.152620103628678 6.467773092753221 4.18885779293771 6.412076422029196 Q 4.225095482246742 6.356379751305171 4.223838043792025 6.28715687012933 L 4.291811498852495 6.256552390056461 Q 4.297634141718215 6.353629411383486 4.2485301926807555 6.43057229375479 Q 4.199426243643296 6.507515176126093 4.103268673069947 6.5508093186682 Q 4.023689993974762 6.586638953875462 3.9420505630231495 6.578033554368539 Q 3.860411132071537 6.569428154861617 3.7928773715395425 6.519078785878459 Q 3.7253436110075477 6.4687294168953 3.6869013982330903 6.383348125782758 Q 3.648459185458633 6.297966834670216 3.655343823895003 6.213612710393296 M 4.6839268096456435 6.191988246087734 Q 4.601352101180421 6.199074794949914 4.525072568100364 6.161901604930372 Q 4.448793035020307 6.124728414910829 4.395293306421862 6.0478808538894535 Q 4.341793577823417 5.9710332928680785 4.333408491859332 5.88659335233923 Q 4.325023405895248 5.802153411810382 4.360331363851165 5.7271724158322295 Q 4.3956393218070815 5.652191419854076 4.468010325875755 5.601808180300201 Q 4.54112742276988 5.550905525905564 4.6237021312351025 5.543818977043384 Q 4.706276839700325 5.536732428181203 4.782183326367656 5.574165325621126 Q 4.858089813034988 5.6115982230610495 4.911589541633433 5.688445784082425 Q 4.9650892702318785 5.7652933451038 4.973847402608688 5.849473578212268 Q 4.982605534985497 5.9336538113207355 4.94729757702958 6.008634807298888 Q 4.911989619073664 6.083615803277041 4.83887252217954 6.134518457671678 Q 4.766501518110865 6.184901697225554 4.6839268096456435 6.191988246087734 M 4.892942278188699 5.98942937589638 Q 4.920501099099197 5.930366314052952 4.912299939063997 5.861306114067642 Q 4.904098779028798 5.792245914082333 4.857870858201015 5.725843652617261 Q 4.811642937373233 5.659441391152188 4.749982801325997 5.628152106114439 Q 4.68832266527876 5.596862821076691 4.623365975833427 5.602207199487701 Q 4.558409286388095 5.607551577898711 4.500214046002975 5.648065935478116 Q 4.442018805617856 5.688580293057521 4.414459984707358 5.74764335490095 Q 4.3869011637968605 5.806706416744378 4.394842616411679 5.875393570316962 Q 4.402784069026497 5.944080723889546 4.44901198985428 6.010482985354619 Q 4.495239910682062 6.076885246819691 4.557159754149679 6.108547578270165 Q 4.619079597617296 6.140209909720639 4.6840362870626295 6.134865531309629 Q 4.748992976507963 6.129521152898618 4.807188216893082 6.089006795319213 Q 4.8653834572782015 6.048492437739808 4.892942278188699 5.98942937589638 M 5.275519668082343 4.89581531806644 L 5.726124868216969 5.332193626408867 L 5.681854605051795 5.377907197437017 L 5.322023495958782 5.029436983094007 L 5.526276251642756 5.538557747050232 L 5.494022202765271 5.571863348799313 L 4.979918842292595 5.385308548731378 L 5.338443849356232 5.7325138984125275 L 5.294173586191058 5.778227469440678 L 4.8435683860564325 5.34184916109825 L 4.890368378545331 5.293523386011348 L 5.449752317687264 5.497353298986459 L 5.228087243262514 4.9447941441680285 L 5.275519668082343 4.89581531806644 M 5.4459963752200515 4.729744989831279 L 5.640624223313821 4.865459203728818 L 5.778418348535459 4.667848553365412 L 5.821668981445185 4.698007267564866 L 5.683874856223547 4.895617917928271 L 5.8814855065869525 5.03341204314991 L 6.034878966739343 4.8134303757642325 L 6.078129599649069 4.843589089963685 L 5.888337691324925 5.115769797067998 L 5.3663472941385715 4.751785315350462 L 5.556139202462715 4.479604608246149 L 5.599389835372442 4.509763322445602 L 5.4459963752200515 4.729744989831279 M 6.222480057455752 4.566436149689152 Q 6.181102191565205 4.59871304288194 6.133837484637284 4.604873262477373 Q 6.086572777709362 4.611033482072806 6.04298706662317 4.590416033696714 L 6.074025928255516 4.530731790354951 Q 6.117256883912161 4.548090719091989 6.165086584370967 4.53197756286462 Q 6.212916284829775 4.515864406637252 6.2452134786904585 4.453760531808661 Q 6.274994008094466 4.3964959199537255 6.262962087496736 4.347714642274485 Q 6.250930166899005 4.2989333645952446 6.205763712478212 4.275444496332929 Q 6.169469240175788 4.256569512907854 6.137642071129268 4.263585308880436 Q 6.105814902082749 4.270601104853017 6.080665461804187 4.292361100009549 Q 6.055516021525626 4.3141210951660796 6.017444675695774 4.35580261968484 Q 5.972759257617968 4.40429125026469 5.9410442615763746 4.429809553881313 Q 5.909329265534781 4.455327857497935 5.8665167218276855 4.462778753644989 Q 5.8237041781205905 4.470229649792044 5.7712788292393125 4.442965784844713 Q 5.727725462476403 4.4203158047346225 5.705191783877495 4.379906204289433 Q 5.682658105278585 4.339496603844243 5.6846927012657105 4.288296210741455 Q 5.686727297252837 4.237095817638669 5.71441060627628 4.183863924928447 Q 5.75509668165922 4.105629173521001 5.81836443606271 4.077563409314264 Q 5.881632190466202 4.049497645107527 5.945897974321923 4.073697056355501 L 5.914020224537352 4.13499438735515 Q 5.876402731360024 4.122604098884899 5.83260575004593 4.1408144754928315 Q 5.788808768731838 4.159024852100764 5.760286571556168 4.213869832468871 Q 5.733861594761064 4.264682093692263 5.743264161833909 4.312608311057637 Q 5.752666728906754 4.360534528423011 5.799446270985434 4.384862284837552 Q 5.834934199458915 4.403317824186514 5.866358096590963 4.396092306175876 Q 5.897781993723012 4.388866788165238 5.9235444279541 4.3669132431322915 Q 5.94930686218519 4.344959698099346 5.986958763938928 4.304084717409528 Q 6.030805293864509 4.2572091744875635 6.063343005896686 4.231094049080054 Q 6.095880717928864 4.204978923672545 6.138693261635959 4.197528027525491 Q 6.181505805343055 4.1900771313784375 6.23312461039539 4.216921552249655 Q 6.272645258013585 4.237474311979181 6.297227640508134 4.276899990880655 Q 6.321810023002683 4.316325669782129 6.322195058502386 4.368784395113254 Q 6.322580094002088 4.421243120444379 6.292799564598081 4.478507732299315 Q 6.263857923346299 4.534159256496364 6.222480057455752 4.566436149689152 M 6.070752150629118 3.2540638928750276 L 6.121431823014838 3.2686150473354902 L 6.072760720164325 3.4381298135911758 L 6.632858478772028 3.5989451585766346 L 6.61529674063009 3.6601102804214696 L 6.055198982022387 3.499294935436011 L 6.006276997198418 3.669683489146623 L 5.955597324812698 3.6551323346861597 L 6.070752150629118 3.2540638928750276 M 6.71296024687173 3.082447380512948 Q 6.663070947832171 3.1486278874181846 6.584451958167568 3.1805569914967124 Q 6.505832968502964 3.21248609557524 6.412908680984624 3.2009602383728337 Q 6.319984393466285 3.1894343811704275 6.251548442689244 3.1392653283152763 Q 6.183112491912203 3.0890962754601254 6.150903634018083 3.0127327296673263 Q 6.118694776123963 2.936369183874527 6.129549224168947 2.848857961648518 Q 6.140515573740169 2.7604445618737867 6.190404872779728 2.69426405496855 Q 6.240294171819286 2.628083548063314 6.318857210720772 2.5966055327591473 Q 6.3974202496222565 2.56512751745498 6.490344537140596 2.5766533746573863 Q 6.583268824658936 2.5881792318597925 6.651760726199095 2.6378971959405826 Q 6.720252627739255 2.687615160021373 6.752461485633375 2.7639787058141723 Q 6.784670343527495 2.8403422516069714 6.773703993956273 2.9287556513817026 Q 6.762849545911289 3.016266873607712 6.71296024687173 3.082447380512948 M 6.701858985403438 2.7915963465156737 Q 6.676318488276146 2.7316328835503954 6.619449958681958 2.691601138775418 Q 6.562581429087771 2.651569394000441 6.4822876272515355 2.641610158165352 Q 6.401993825415301 2.6316509223302633 6.337519474706413 2.65663191182637 Q 6.273045123997526 2.681612901322477 6.233628837616852 2.733519454398695 Q 6.194212551236178 2.785426007474913 6.185484232189696 2.855795856275209 Q 6.1767559131432135 2.9261657050755048 6.202296410270505 2.9861291680407835 Q 6.227836907397797 3.046092631006062 6.284254348217623 3.0860684250179204 Q 6.34067178903745 3.1260442190297795 6.420965590873685 3.136003454864868 Q 6.501259392709921 3.145962690699957 6.566184832193168 3.1210376519669687 Q 6.631110271676417 3.0961126132339802 6.670526558057091 3.0442060601577623 Q 6.709942844437764 2.9922995070815444 6.718671163484247 2.921929658281248 Q 6.727399482530729 2.851559809480952 6.701858985403438 2.7915963465156737 M 6.737039201480031 2.00993728467349 L 6.7165230497058985 1.7826796562753633 L 6.76813135575647 1.7780206098565365 L 6.794369143483547 2.068656859720276 L 6.161488337705498 2.125791481593259 L 6.155766701752552 2.062412860127646 L 6.737039201480031 2.00993728467349 M 6.1040781474818 1.6607311195756331 L 6.730325742811552 1.552951582173829 L 6.7411191156557955 1.6156659336374664 L 6.114871520326044 1.7234454710392706 L 6.1040781474818 1.6607311195756331 M 5.985575133141004 1.164203020518254 L 6.036542098482983 1.1506925159723227 L 6.10828753641655 1.4213446767538704 L 6.337638880455459 1.3605474062971792 L 6.277074549732318 1.1320748030400285 L 6.328041515074298 1.118564298494097 L 6.388605845797438 1.3470369017512478 L 6.671560377523602 1.2720303075479735 L 6.68786615887214 1.3335421622710526 L 6.073626352423108 1.496367036022881 L 5.985575133141004 1.164203020518254 M 5.96803042348811 0.9654691240343541 L 6.188432408475349 0.8775981269925386 L 6.099214729486533 0.6538183338062612 L 6.148192948372587 0.6342914455747466 L 6.2374106273614025 0.8580712387610241 L 6.4611904205476804 0.7688535597722076 L 6.361872626956356 0.5197402050931439 L 6.410850845842409 0.5002133168616294 L 6.5337355735062514 0.8084383150238607 L 5.942619138674575 1.0441076557490363 L 5.819734411010733 0.7358826575868052 L 5.868712629896786 0.7163557693552906 L 5.96803042348811 0.9654691240343541" fill="#fcf3e7" fill-rule="nonzero"></path></g><g transform="matrix(1,0,0,1,0,0)" clip-path="url(#SvgjsClipPath120628)"><g clip-path="url(#SvgjsClipPath120615f4002c09-f138-4b80-8905-8458382428fc)"><path d=" M 0.09963614312324952 0.8919152674067632 L 0.8774852052992593 0.4425219046301583 L 1.615479810225968 0.8692394555235409 C 1.983824860289575 1.0886555511603015 2.442768477641393 1.0886555511603015 2.811113527705 0.8692394555235409 L 3.5491081326317087 0.4425219046301583 L 4.327644340622367 0.8919152674067632 L 3.0955918949672574 1.6031111855623967 C 2.552176624507765 1.9268112504324946 1.8751038592378517 1.9268112504324946 1.3316885887783594 1.6031111855623967 Z" fill="#0691ca" transform="matrix(1,0,0,1,0,0)" fill-rule="evenodd"></path></g><g clip-path="url(#SvgjsClipPath120615f4002c09-f138-4b80-8905-8458382428fc)"><path d=" M 2.313619957903382 4.726188913115378 L 3.090781874264756 4.276795550338779 L 3.090781874264756 3.4247347401813037 C 3.0849051095146023 2.99600215776586 3.314380970278476 2.5985077644656838 3.6885987330042656 2.3892059975141184 L 4.426593337930974 1.9631755924353904 L 4.426593337930974 1.0650760126968293 L 3.195915183905149 1.7755847850378206 C 2.642667274085532 2.085174159173987 2.303864585674423 2.673329293495136 2.3136199579033883 3.307232805877327 Z" fill="#004883" transform="matrix(1,0,0,1,0,0)" fill-rule="evenodd"></path></g><g clip-path="url(#SvgjsClipPath120615f4002c09-f138-4b80-8905-8458382428fc)"><path d=" M 0 1.0650760126968293 L 0 1.9631755924353904 L 0.7379946049267088 2.389893143328773 C 1.1119937453003876 2.5990770401965597 1.341434628678475 2.996247121078623 1.335811463666231 3.42473474018131 L 1.335811463666231 4.276795550338779 L 2.1129733800275923 4.726188913115384 L 2.1129733800275923 3.3031099309894745 C 2.1216711751758144 2.6703729746686493 1.7826288640573393 2.083842968741532 1.2299910082111771 1.7755847850378144 Z" fill="#004883" transform="matrix(1,0,0,1,0,0)" fill-rule="evenodd"></path></g><g clip-path="url(#SvgjsClipPath120615f4002c09-f138-4b80-8905-8458382428fc)"><path d=" M 1.1867008218886652 0.28379122144760244 L 1.1440977813807955 0.3085284707747574 L 1.7109930784613647 0.6273641287691659 C 1.7883454253075994 0.6727274694657814 1.8712694201438616 0.7078373502878234 1.9576784259182474 0.7318102925949168 C 2.1245391306174506 0.7776678602051498 2.300679915684246 0.7776678602051498 2.467540620383449 0.7318102925949168 C 2.5536945367285475 0.7077304198740128 2.636377815341005 0.6726246702955428 2.7135388220256833 0.6273641287691659 L 3.278372681662326 0.3030313042576077 L 3.2715012235158984 0.29890842936974854 C 2.633409740823719 -0.09375751979304033 1.8299135016496855 -0.09905413310334288 1.1867008218886714 0.28516551307689303 Z" fill="#004883" transform="matrix(1,0,0,1,0,0)" fill-rule="evenodd"></path></g><g clip-path="url(#SvgjsClipPath120615f4002c09-f138-4b80-8905-8458382428fc)"><path d=" M 4.409414692564902 2.3101842288301646 L 4.409414692564902 2.2607097301758547 L 3.8507651452600387 2.5939754502777737 C 3.7731271418647503 2.638757050889722 3.701344799395993 2.6929977276747916 3.6370627969060294 2.755454716718904 C 3.575603451975654 2.816801688289025 3.5226766341316536 2.8861381308794236 3.4797064053527578 2.961598461111837 C 3.4369276184535544 3.036242852604105 3.404122997158469 3.1161752397034026 3.3821316996734345 3.199350912978353 C 3.3597900814219432 3.285512433827799 3.348703506474365 3.37420503340841 3.3491487005705616 3.463214905801314 L 3.3491487005705616 4.115316283897635 L 3.356020158716989 4.111193409009776 C 4.015299135005495 3.7548774948237438 4.4218023508534 3.0615710328759844 4.41078898419418 2.3122456662740847 Z" fill="#0691ca" transform="matrix(1,0,0,1,0,0)" fill-rule="evenodd"></path></g><g clip-path="url(#SvgjsClipPath120615f4002c09-f138-4b80-8905-8458382428fc)"><path d=" M 0.017178645366078805 2.3101842288301646 L 0.017178645366078805 2.2607097301758547 L 0.5758281926709359 2.5939754502777737 C 0.6535818451445632 2.638582275066277 0.7253850870980179 2.692838744066472 0.7895305410249451 2.755454716718904 C 0.8509898859553205 2.816801688289025 0.903916703799327 2.8861381308794236 0.946886932578223 2.961598461111837 C 0.9896657194774199 3.036242852604105 1.022470340772505 3.1161752397034026 1.044461638257546 3.199350912978353 C 1.066449972681942 3.2855796541260474 1.0775308713661735 3.3742268435998555 1.0774446373604194 3.463214905801314 L 1.0774446373604194 4.115316283897635 L 1.0698860333993432 4.111193409009776 C 0.41109655274330864 3.754461520500545 0.004967093367402289 3.061340969883781 0.015804353736800805 2.3122456662740847 Z" fill="#0691ca" transform="matrix(1,0,0,1,0,0)" fill-rule="evenodd"></path></g></g><g><path d=" M -1.37320667121483 2.3630944565576906 A 3.58650334018032 3.58650334018032 0 0 1 5.79980000914581 2.3630944565576906 A 3.58650334018032 3.58650334018032 0 0 1 -1.37320667121483 2.3630944565576906 Z M -1.3232066712148303 2.3630944565576906 A 3.53650334018032 3.53650334018032 0 0 0 5.74980000914581 2.3630944565576906 A 3.53650334018032 3.53650334018032 0 0 0 -1.3232066712148303 2.3630944565576906 Z" fill="#fffcfa" fill-rule="nonzero"></path></g><g transform="matrix(0.7947551746957082,-0.6069301543788992,0.6069301543788992,0.7947551746957082,-0.012285110142800093,-0.7502721065100563)"><g clip-path="url(#SvgjsClipPath120629)"><path d=" M -1.268201179627863 -0.249813623070262 C -1.268201179627863 -0.22353015285082622 -1.2516587800588974 -0.20754006586023066 -1.2244553465557626 -0.20754006586023066 L -1.0064621099962014 -0.20754006586023066 C -0.9792584673629726 -0.20754006586023066 -0.9627162769241011 -0.22353015285082622 -0.9627162769241011 -0.249813623070262 L -0.9627162769241011 -0.47074890179283246 C -0.9627162769241011 -0.4970332085326444 -0.9792584673629726 -0.5130243411737102 -1.0064621099962014 -0.5130243411737102 L -1.2244553465557626 -0.5130243411737102 C -1.2516587800588974 -0.5130243411737102 -1.268201179627863 -0.4970332085326444 -1.268201179627863 -0.47074890179283246 L -1.268201179627863 -0.249813623070262 Z" fill="#fffcfa" transform="matrix(1,0,0,1,0,0)" fill-rule="nonzero"></path></g></g><g transform="matrix(-0.7947551746957082,-0.6069301543788992,-0.6069301543788992,0.7947551746957082,9.729969436374411,3.290371820837305)"><g clip-path="url(#SvgjsClipPath120630)"><path d=" M 5.389309405724988 -0.24981362307026223 C 5.389309405724988 -0.22353015285082645 5.4058518052939535 -0.20754006586023088 5.433055238797088 -0.20754006586023088 L 5.6510484753566494 -0.20754006586023088 C 5.678252117989878 -0.20754006586023088 5.694794308428749 -0.22353015285082645 5.694794308428749 -0.24981362307026223 L 5.694794308428749 -0.4707489017928327 C 5.694794308428749 -0.4970332085326446 5.678252117989878 -0.5130243411737104 5.6510484753566494 -0.5130243411737104 L 5.433055238797088 -0.5130243411737104 C 5.4058518052939535 -0.5130243411737104 5.389309405724988 -0.4970332085326446 5.389309405724988 -0.4707489017928327 L 5.389309405724988 -0.24981362307026223 Z" fill="#fffcfa" transform="matrix(1,0,0,1,0,0)" fill-rule="nonzero"></path></g></g></g><defs><clipPath id="SvgjsClipPath120628"><path d=" M 0 0 h 4.4265933379309805 v 4.726188913115381 h -4.4265933379309805 Z"></path></clipPath><clipPath id="SvgjsClipPath120615f4002c09-f138-4b80-8905-8458382428fc"><path d=" M -3.931604675538641e-16 0 L 4.4265933379309805 0 L 4.4265933379309805 4.726188913115381 L -7.863209351077282e-16 4.726188913115381 Z"></path></clipPath><clipPath id="SvgjsClipPath120629"><path d=" M -1.408240755372377 -0.6602105196219861 h 0.585564263322884 v 0.6064772727272727 h -0.585564263322884 Z"></path></clipPath><clipPath id="SvgjsClipPath120630"><path d=" M 5.249269829980474 -0.6602105196219863 h 0.585564263322884 v 0.6064772727272727 h -0.585564263322884 Z"></path></clipPath></defs></svg>